<!-- Generated by IcoMoon.io -->
<svg version="1.1" 
    xmlns="http://www.w3.org/2000/svg" fill='#6FC8DC' width="12" height="12" viewBox="0 0 512 512">
    <title></title>
    <g id="icomoon-ignore"></g>
    <path d="M256 0c-141.385 0-256 114.615-256 256s114.615 256 256 256 256-114.615 256-256-114.615-256-256-256zM256 448c-106.039 0-192-85.961-192-192s85.961-192 192-192c106.039 0 192 85.961 192 192s-85.961 192-192 192zM160 256c0-53.019 42.981-96 96-96s96 42.981 96 96c0 53.019-42.981 96-96 96s-96-42.981-96-96z"></path>
</svg>